<?xml version="1.0" standalone="no"?>
<!DOCTYPE svg PUBLIC "-//W3C//DTD SVG 20010904//EN"
 "http://www.w3.org/TR/2001/REC-SVG-20010904/DTD/svg10.dtd">
<svg version="1.0" xmlns="http://www.w3.org/2000/svg"
 width="165.000000pt" height="165.000000pt" viewBox="0 0 165.000000 165.000000"
 preserveAspectRatio="xMidYMid meet">
<metadata>
Created by potrace 1.14, written by Peter Selinger 2001-2017
</metadata>
<g transform="translate(0.000000,165.000000) scale(0.100000,-0.100000)"
fill="#000000" stroke="none">
<path d="M757 1602 c-46 -84 -27 -186 44 -246 26 -22 29 -31 29 -85 l0 -61
-269 0 c-160 0 -280 -4 -297 -10 -52 -19 -69 -54 -72 -157 -4 -87 -5 -93 -30
-109 -33 -21 -47 -39 -69 -84 -9 -19 -19 -39 -21 -44 -3 -5 1 -5 9 -1 12 8 12
6 0 -8 -16 -20 -9 -92 13 -135 13 -26 13 -28 -4 -28 -11 0 -17 2 -14 5 9 9
-38 49 -52 44 -8 -3 -14 -9 -14 -13 0 -13 63 -70 77 -70 18 0 16 -15 -3 -30
-26 -22 -44 -79 -39 -121 7 -51 42 -105 78 -120 16 -7 33 -23 38 -36 5 -13 17
-23 28 -23 14 0 26 -13 40 -45 30 -67 104 -141 180 -178 l66 -32 360 0 c353 0
361 0 417 23 80 32 160 108 198 187 16 35 30 75 30 89 0 19 7 29 25 36 20 8
25 16 25 44 0 47 12 51 49 15 22 -21 36 -27 47 -21 13 7 12 12 -5 34 -11 14
-36 33 -56 42 -32 15 -35 21 -35 57 0 32 -4 42 -20 46 -28 7 -25 20 8 37 38
20 84 74 86 102 0 13 4 24 8 24 13 0 2 84 -15 115 -8 17 -27 41 -41 54 -17 16
-26 35 -26 54 0 20 -6 30 -20 34 -17 5 -20 14 -20 65 0 34 -7 74 -16 93 -29
61 -51 65 -343 65 l-261 0 0 53 0 53 35 -4 c48 -6 94 4 134 29 l34 21 -69 69
-68 69 29 30 c16 16 39 30 51 30 43 0 58 51 22 74 -25 15 -53 -4 -53 -35 0
-15 -13 -35 -33 -53 l-33 -29 -68 67 -67 67 -27 -49z m-567 -802 c0 -65 -3
-80 -15 -80 -9 0 -19 -8 -22 -17 -6 -15 -7 -15 -14 3 -22 56 10 172 49 174 1
0 2 -36 2 -80z m1358 28 c1 -7 5 -29 8 -49 7 -42 -15 -92 -46 -109 -19 -10
-20 -8 -20 43 0 46 3 55 20 60 15 4 20 14 20 36 0 30 15 45 18 19z m-1398
-289 c0 -22 5 -32 20 -36 17 -5 20 -14 20 -59 0 -31 -5 -54 -10 -54 -6 0 -14
-10 -19 -21 -7 -22 -8 -21 -40 7 -18 17 -33 41 -35 57 -1 15 -5 30 -9 33 -8 9
2 34 30 72 30 40 43 41 43 1z"/>
</g>
</svg>
